/* XPM */
static char * greasemonkey_xpm[] = {
"16 16 145 2",
"  	c None",
". 	c #B59773",
"+ 	c #733700",
"@ 	c #884200",
"# 	c #8C4400",
"$ 	c #8D4500",
"% 	c #8A4300",
"& 	c #7F3E00",
"* 	c #482000",
"= 	c #A36418",
"- 	c #D49A57",
"; 	c #D39959",
"> 	c #AC681B",
", 	c #A45E0E",
"' 	c #CE9350",
") 	c #D79E5E",
"! 	c #B8772C",
"~ 	c #4D2B01",
"{ 	c #704108",
"] 	c #E0A35E",
"^ 	c #EBB06F",
"/ 	c #EAAC6A",
"( 	c #DD9E59",
"_ 	c #D89751",
": 	c #E9AD6C",
"< 	c #EAAE6E",
"[ 	c #975E1A",
"} 	c #462902",
"| 	c #B67E35",
"1 	c #B57D39",
"2 	c #995F1A",
"3 	c #E7A45F",
"4 	c #E4A15B",
"5 	c #EAA660",
"6 	c #E7A662",
"7 	c #E6A562",
"8 	c #E5A25C",
"9 	c #E9A661",
"0 	c #B1742F",
"a 	c #A16A26",
"b 	c #CA9148",
"c 	c #674009",
"d 	c #815517",
"e 	c #EAB77D",
"f 	c #D69A5A",
"g 	c #9C6320",
"h 	c #E9A866",
"i 	c #DFA569",
"j 	c #43311E",
"k 	c #AF8458",
"l 	c #D5A16C",
"m 	c #3C2C1B",
"n 	c #C6925D",
"o 	c #F0B06E",
"p 	c #AE722F",
"q 	c #BB8040",
"r 	c #F6C085",
"s 	c #A27334",
"t 	c #724A12",
"u 	c #E2AC6D",
"v 	c #E6A96A",
"w 	c #8F5C1E",
"x 	c #E5AB6E",
"y 	c #E6B380",
"z 	c #2C231B",
"A 	c #A98867",
"B 	c #D6AB81",
"C 	c #251E18",
"D 	c #C69B6F",
"E 	c #F8BE83",
"F 	c #976223",
"G 	c #CC9357",
"H 	c #F1B677",
"I 	c #926529",
"J 	c #89591D",
"K 	c #966428",
"L 	c #AA7639",
"M 	c #C2966A",
"N 	c #CEA276",
"O 	c #E3B88C",
"P 	c #ECC399",
"Q 	c #EDC49C",
"R 	c #E6BC93",
"S 	c #D8AD82",
"T 	c #BE966D",
"U 	c #BC884F",
"V 	c #8E5C1F",
"W 	c #966424",
"X 	c #412703",
"Y 	c #543102",
"Z 	c #E5AD72",
"` 	c #C49C73",
" .	c #967B60",
"..	c #957D66",
"+.	c #927E6B",
"@.	c #93806E",
"#.	c #96816D",
"$.	c #947C65",
"%.	c #B18F6F",
"&.	c #EFBC88",
"*.	c #7F5219",
"=.	c #5A370A",
"-.	c #E7B076",
";.	c #F3C190",
">.	c #F6CBA0",
",.	c #F3D0AE",
"'.	c #F2D5BC",
").	c #F3D9C2",
"!.	c #F4D6BA",
"~.	c #F7D2AE",
"{.	c #F5C99C",
"].	c #F3BF8D",
"^.	c #885B23",
"/.	c #311C00",
"(.	c #C69154",
"_.	c #F4C290",
":.	c #ECC094",
"<.	c #EFC8A3",
"[.	c #F1CFAF",
"}.	c #F1D1B3",
"|.	c #F0CEAD",
"1.	c #EEC6A0",
"2.	c #F3C598",
"3.	c #E1AC74",
"4.	c #553409",
"5.	c #774E19",
"6.	c #D09B60",
"7.	c #F3C08D",
"8.	c #F3C496",
"9.	c #F2C69B",
"0.	c #F2C79D",
"a.	c #F3C69B",
"b.	c #F5C595",
"c.	c #E0AC75",
"d.	c #916126",
"e.	c #472700",
"f.	c #80521C",
"g.	c #B27D42",
"h.	c #C18D53",
"i.	c #C28E54",
"j.	c #B8844A",
"k.	c #906028",
"l.	c #4A2800",
"m.	c #9F8A6C",
"n.	c #A08A6C",
"                                ",
"                .               ",
"          + @ # $ % & *         ",
"        = - ; > , ' ) ! ~       ",
"      { ] ^ / ( _ / : < [       ",
"} | 1 2 3 4 5 6 7 5 8 9 0 a b c ",
"d e f g h i j k l m n o p q r s ",
"t u v w x y z A B C D E F G H I ",
"  J K L M N O P Q R S T U V W X ",
"    Y Z `  ...+.@.#.$.%.&.*.    ",
"    =.-.;.>.,.'.).!.~.{.].^.    ",
"    /.(._.:.<.[.}.|.1.2.3.4.    ",
"      5.6.7.8.9.0.a.b.c.d.      ",
"        e.f.g.h.i.j.k.l.        ",
"              m.n.              ",
"                                "};
